<?xml version="1.0" encoding="utf-8"?>
<!-- Generator: Adobe Illustrator 21.0.2, SVG Export Plug-In . SVG Version: 6.00 Build 0)  -->
<svg version="1.1" id="Layer_1" xmlns="http://www.w3.org/2000/svg" xmlns:xlink="http://www.w3.org/1999/xlink" x="0px" y="0px"
	 viewBox="0 0 1200 800" style="enable-background:new 0 0 1200 800;" xml:space="preserve" width="1200" height="800">
<style type="text/css">
	.st0{enable-background:new    ;}
	.st1{fill:none;stroke:#E73C0E;stroke-width:0.5;}
</style>
<title>2</title>
<desc>Created with Sketch.</desc>
<g class="st0">
	<path class="st1" d="M232.6,439.7c-2.3,24.3-11.2,43.2-26.9,56.8c-15.6,13.6-36.4,20.4-62.4,20.4c-18.1,0-34.1-4.3-47.9-12.9
		c-13.8-8.6-24.5-20.8-32-36.7C56,451.5,52,433.1,51.7,412.2v-21.2c0-21.5,3.8-40.4,11.4-56.7c7.6-16.4,18.5-29,32.7-37.8
		s30.7-13.3,49.3-13.3c25.1,0,45.3,6.8,60.6,20.4c15.3,13.6,24.2,32.9,26.7,57.8h-39.4c-1.9-16.4-6.7-28.2-14.3-35.4
		S160,315,145.2,315c-17.2,0-30.4,6.3-39.6,18.9s-13.9,31-14.2,55.3v20.2c0,24.6,4.4,43.4,13.2,56.3s21.7,19.4,38.7,19.4
		c15.5,0,27.2-3.5,35-10.5c7.8-7,12.8-18.6,14.8-34.9H232.6z"/>
</g>
</svg>
