<?xml version="1.0" encoding="utf-8"?>
<!-- Generator: Adobe Illustrator 21.0.2, SVG Export Plug-In . SVG Version: 6.00 Build 0)  -->
<svg version="1.1" id="Layer_1" xmlns="http://www.w3.org/2000/svg" xmlns:xlink="http://www.w3.org/1999/xlink" x="0px" y="0px"
	 viewBox="0 0 261 167" style="enable-background:new 0 0 261 167;" xml:space="preserve">
<style type="text/css">
	.st0{enable-background:new    ;}
	.st1{fill:#222222;}
	.st2{clip-path:url(#SVGID_2_);fill:#FFFFFF;}
	.st3{fill:#0089CF;}
	.st4{fill:#635FAA;}
	.st5{fill:#CE1041;}
	.st6{fill:#F36F21;}
	.st7{fill:#FDB813;}
	.st8{fill:#0CB14B;}
</style>
<g id="XMLID_34_">
	<g class="st0">
		<path class="st1" d="M249.9,158.9h-46.7l-29.1-46.7l-28.8,46.7H99.7l49.5-76.4L102.7,9.6h44.7l27,46.1l25.9-46.1h46l-47.3,76.1
			L249.9,158.9z"/>
	</g>
</g>
<g id="XMLID_26_">
	<g>
		<g>
			<defs>
				<rect id="SVGID_1_" x="117.6" y="97.3" width="110.4" height="82.1"/>
			</defs>
			<clipPath id="SVGID_2_">
				<use xlink:href="#SVGID_1_"  style="overflow:visible;"/>
			</clipPath>
			<path id="XMLID_28_" class="st2" d="M218.6,158.2c-1.8,0.8-3.7,1.1-5.8,1.1l-83-0.1c-4.7-0.4-9.3-4.2-10.6-8.9
				c-1.4-4.6,0-9.4,3-12.8c3-3,6.8-4.3,11-3.9c-4-2.7-5.6-7.2-5.1-12c0.5-4.2,3.6-8.2,7.4-9.9c4.4-2,10-0.9,13.5,2.4
				c-0.7-2.4-1.1-5.9-0.1-8.5c1.2-4,5-7.5,8.9-8.3c5.2-1.1,10.2,0.8,13.2,5.3c0.6,0.8,0.9,1.8,1.4,2.7c1.5-4.3,5.8-7.8,10.2-8.3
				c4.5-0.6,8.8,1.4,11.7,5.2c2.2,3.2,3,7.9,1.5,11.7h0.2c3.3-3,8.3-4,12.5-2.4c4.1,1.3,7.5,5.7,8.1,9.9c0.6,4.7-1,8.8-4.6,11.9
				c5.4-0.3,10.5,2.6,12.8,7.6c1.9,4.4,1.4,10.3-1.9,13.8C221.6,156.4,220.2,157.6,218.6,158.2"/>
		</g>
	</g>
</g>
<path id="XMLID_25_" class="st3" d="M209.8,133.8l-30.7,20.5l10.3-24.6l4.9-11.4c2-3.7,5.7-6.1,9.8-6.1c3.9,0,7.4,1.9,9.6,5.3
	c2.3,3.4,2.4,8.9,0.1,12.3C212.8,131.3,211.3,132.8,209.8,133.8"/>
<path id="XMLID_23_" class="st4" d="M188.5,99.3c-3.1-1.5-7.4-1-10.1,0.8c-3.6,2.3-5.5,6.2-5.2,10.4h4.3c0.3,0.2,0.9,0.3,0.8,0.8
	l-2.2,1.3c-1.4,1-2.2,2.5-2,4.3l4.6,29.4l0.7,3.9l15.2-35.9c0.6-1.4,0.9-3.1,0.9-4.7C195.4,105.3,192.5,101,188.5,99.3z"/>
<path id="XMLID_21_" class="st5" d="M171.5,106.9c-0.9-3.7-4.3-7.2-7.9-8c-4.3-1.1-8.4,0.3-11.4,3.5c-2.7,3.1-3.4,8.2-1.8,12
	l14.9,36l6.4-38.9C171.8,110,171.9,108.3,171.5,106.9z"/>
<path id="XMLID_20_" class="st6" d="M133.4,132.5c-3.1-2.7-4.4-6.2-4-10.3c0.4-4.2,3.7-8.2,7.6-9.5c4-1.3,8.4-0.3,11.3,2.7
	c1.2,1.2,2,2.6,2.6,4l14.4,35L133.4,132.5"/>
<path id="XMLID_19_" class="st7" d="M130.1,158c-4-0.5-7.1-2.6-9-6.3s-1.4-8.9,1.1-12.2c2.8-3.3,6.8-5,10.9-4.2c1.7,0.3,3,1,4.3,1.8
	l31.1,20.9H130.1"/>
<path id="XMLID_1_" class="st8" d="M214.5,158c4-0.5,7.1-2.6,9-6.3s1.4-8.9-1.1-12.2c-2.8-3.3-6.8-5-10.9-4.2c-1.7,0.3-3,1-4.3,1.8
	L176,158H214.5"/>
</svg>
