<?xml version="1.0" encoding="utf-8"?>
<!-- Generator: Adobe Illustrator 21.0.2, SVG Export Plug-In . SVG Version: 6.00 Build 0)  -->
<svg version="1.1" id="Layer_1" xmlns="http://www.w3.org/2000/svg" xmlns:xlink="http://www.w3.org/1999/xlink" x="0px" y="0px"
	 viewBox="0 0 2400 1600" style="enable-background:new 0 0 2400 1600;" xml:space="preserve" width="2400" height="1600">
<style type="text/css">
	.st0{opacity:0.26;enable-background:new    ;}
	.st1{fill:none;stroke:#E73C0E;}
</style>
<title>2</title>
<desc>Created with Sketch.</desc>
<g class="st0">
	<path class="st1" d="M628.8,962.7c-8.7,91.8-42.3,163.2-101.6,214.6c-58.9,51.4-137.5,77.1-235.8,77.1c-68.4,0-128.8-16.3-181-48.7
		c-52.1-32.5-92.6-78.6-120.9-138.7c-28-59.7-43.1-129.2-44.2-208.2v-80.1c0-81.2,14.4-152.7,43.1-214.2
		c28.7-62,69.9-109.6,123.6-142.8s116-50.3,186.3-50.3c94.8,0,171.2,25.7,229,77.1c57.8,51.4,91.4,124.3,100.9,218.4H479.1
		c-7.2-62-25.3-106.6-54-133.8c-28.7-27.2-70.7-41.6-126.6-41.6c-65,0-114.9,23.8-149.6,71.4s-52.5,117.1-53.7,209v76.3
		c0,93,16.6,164,49.9,212.7c33.3,48.7,82,73.3,146.2,73.3c58.6,0,102.8-13.2,132.2-39.7c29.5-26.4,48.4-70.3,55.9-131.9L628.8,962.7
		L628.8,962.7z"/>
</g>
</svg>
