<?xml version="1.0" encoding="utf-8"?>
<!-- Generator: Adobe Illustrator 21.0.2, SVG Export Plug-In . SVG Version: 6.00 Build 0)  -->
<svg version="1.1" id="Layer_1" xmlns="http://www.w3.org/2000/svg" xmlns:xlink="http://www.w3.org/1999/xlink" x="0px" y="0px"
	 viewBox="0 0 1200 800" style="enable-background:new 0 0 1200 800;" xml:space="preserve" width="1200" height="800">
<style type="text/css">
	.st0{fill:none;stroke:#E73C0E;stroke-width:0.5;}
</style>
<title>2</title>
<desc>Created with Sketch.</desc>
<g>
	<path class="st0" d="M170.2,435.9h34.6v179.6c0,71.3-35,93.2-81.2,93.2c-12.7,0-28.3-2.8-37-6.4l5.2-28.3
		c7.2,2.8,17.5,5.2,29.1,5.2c31.1,0,49.4-13.9,49.4-66.5V435.9z"/>
</g>
<g>
	<path class="st0" d="M852.1,353.3L784,84.9h36.6l31.9,135.8c8,33.4,15.1,66.9,19.9,92.8h0.8c4.4-26.7,12.7-58.5,21.9-93.2
		l35.8-135.4h36.2l32.7,136.2c7.6,31.9,14.7,63.7,18.7,92h0.8c5.6-29.5,13.1-59.3,21.5-92.8l35.4-135.4h35.4l-76.1,268.4h-36.2
		l-33.8-139.8c-8.4-34.2-13.9-60.5-17.5-87.6h-0.8c-4.8,26.7-10.8,53-20.7,87.6l-38.2,139.8H852.1z"/>
</g>
</svg>
